<mxfile host="app.diagrams.net" agent="Mozilla/5.0 (Macintosh; Intel Mac OS X 10_15_7) AppleWebKit/537.36 (KHTML, like Gecko) Chrome/127.0.0.0 Safari/537.36" version="24.7.6">
  <diagram name="第 1 页" id="h7FxwCEHOxReUQmoz1_7">
    <mxGraphModel dx="1741" dy="989" grid="0" gridSize="10" guides="1" tooltips="1" connect="1" arrows="1" fold="1" page="1" pageScale="1" pageWidth="900" pageHeight="1600" background="#000000" math="0" shadow="0">
      <root>
        <mxCell id="0" />
        <mxCell id="1" parent="0" />
        <mxCell id="laZDReM4EWEjGYznUcrh-1" value="&lt;span style=&quot;font-size: 20px; font-weight: 700; text-wrap: wrap;&quot;&gt;Redis&lt;/span&gt;" style="image;sketch=0;aspect=fixed;html=1;points=[];align=center;fontSize=12;image=img/lib/mscae/Cache_Redis_Product.svg;labelBackgroundColor=none;fontColor=#ffffff;" vertex="1" parent="1">
          <mxGeometry x="68" y="539" width="103.57" height="87" as="geometry" />
        </mxCell>
        <mxCell id="laZDReM4EWEjGYznUcrh-24" style="rounded=0;orthogonalLoop=1;jettySize=auto;html=1;exitX=1;exitY=0.5;exitDx=0;exitDy=0;entryX=0;entryY=0.5;entryDx=0;entryDy=0;strokeWidth=3;endArrow=classicThin;endFill=1;strokeColor=#ffffff;flowAnimation=1;" edge="1" parent="1" source="laZDReM4EWEjGYznUcrh-20" target="laZDReM4EWEjGYznUcrh-26">
          <mxGeometry relative="1" as="geometry">
            <mxPoint x="393" y="309" as="targetPoint" />
          </mxGeometry>
        </mxCell>
        <mxCell id="laZDReM4EWEjGYznUcrh-25" style="edgeStyle=none;shape=connector;rounded=0;orthogonalLoop=1;jettySize=auto;html=1;exitX=1;exitY=0.5;exitDx=0;exitDy=0;entryX=0;entryY=0.5;entryDx=0;entryDy=0;strokeColor=#ffffff;strokeWidth=3;align=center;verticalAlign=middle;fontFamily=Helvetica;fontSize=11;fontColor=default;labelBackgroundColor=default;endArrow=classicThin;endFill=1;flowAnimation=1;" edge="1" parent="1" source="laZDReM4EWEjGYznUcrh-20" target="laZDReM4EWEjGYznUcrh-27">
          <mxGeometry relative="1" as="geometry">
            <mxPoint x="393" y="396" as="targetPoint" />
          </mxGeometry>
        </mxCell>
        <mxCell id="laZDReM4EWEjGYznUcrh-20" value="String" style="rounded=1;whiteSpace=wrap;html=1;fillColor=#6a00ff;strokeColor=#3700CC;fontColor=#ffffff;glass=1;shadow=1;fontStyle=1;fontSize=20;" vertex="1" parent="1">
          <mxGeometry x="237" y="327" width="111" height="37" as="geometry" />
        </mxCell>
        <mxCell id="laZDReM4EWEjGYznUcrh-26" value="String" style="rounded=1;whiteSpace=wrap;html=1;fillColor=#6a00ff;strokeColor=#3700CC;fontColor=#ffffff;glass=1;shadow=1;fontStyle=1;fontSize=20;" vertex="1" parent="1">
          <mxGeometry x="395" y="285" width="111" height="37" as="geometry" />
        </mxCell>
        <mxCell id="laZDReM4EWEjGYznUcrh-27" value="Number" style="rounded=1;whiteSpace=wrap;html=1;fillColor=#6a00ff;strokeColor=#3700CC;fontColor=#ffffff;glass=1;shadow=1;fontStyle=1;fontSize=20;" vertex="1" parent="1">
          <mxGeometry x="395" y="371" width="111" height="37" as="geometry" />
        </mxCell>
        <mxCell id="laZDReM4EWEjGYznUcrh-28" value="Session会话" style="shape=image;verticalLabelPosition=bottom;labelBackgroundColor=default;verticalAlign=top;aspect=fixed;imageAspect=0;image=data:image/png,iVBORw0KGgoAAAANSUhEUgAAAQAAAAEACAYAAABccqhmAAAAAXNSR0IArs4c6QAAIABJREFUeF7tfXucI1WV//dUUpUehoeCDDh0khmY6STdPOTl+4XP9b3iim8R17eu78fqdM/+Pqm0i7AqoOsKrg9EBZXFB8qyiKCAb1ARp5PMDEx30gwIKigD06kkdX5zq9PDMHRPkqq6lZv0zb99zznf+71V3666dc85BP1bFgzceCLM/e+yJkCYAKMQSziF9VtRWxaT15NckgHS3Aw2A9tXY7/74tYEA/+6yEzPjlmeEPx9sFnQs1uKAS0AA3pt3HokDmo0zQlm+kD7KfJ5NTMxedytO+5qP1aPGCQGtAAM0moCKK/GozhuTgD07m6nxqALGg2jcMz2ndVubfX4/mRAC0B/rtvDUJeS+60GNScAflvQKTFwoetSYWy2tjWoL22vNgNaANRen7boptYOpY0GT4D4n9sO7nIAES4xGIX1FWdTl6Z6eJ8woAWgTxZqb5ibhhPrDIMnCHi97CkQ4TsGuLB+pv5b2bG0/2gZ0AIQLd+Bo21OWzkGJpjxqsDOunRAwBUuuZO5mcbPuzTVwxVlQAuAoguzN6zSsHUsDEwA+KfeQ+ZrQLFCdmbu2t5j0QiCMKAFIAh7EdgWU+aJBBI3/ksiCNdlCPoZXBSys7UruzTUwxVhQAuAIguxN4wta8zHuy6JAzzPVxTinrBuFKcLs1Xne32AVUPcgwEtAIpdDuVk/CkgcePTsxWD1gmcWwAUshXnW50M1mN6z4AWgN6vgYdgU2romTHicTA/XRFI/mEQNrvMk6OV+lf9O9GWUTCgBSAKlvcRozSc+AcYLN7xn9hjKKGHZ0YFxIVcpf6F0J1rh6EwoAUgFBq7d1JMJV5E8G78k7u37i8LBv8JZBRyM7XP9hfywUerBSDiNS6mrVOJvc95j4k4tArh7iWiQmam9kkVwGgMgBaAiK6CctJ6hcjFZ2AsopDKhiFgp/hqkKk6H1cW5DIBpgVA8kKXUtZrW0U4RiSH6sw9809ApMRGIwEuMyZ3rHLsk25CvbMJ6FFhMqAFIEw29/BVSppngGgjgDWSQnTllsE/MpjtTLVxfTkVfzLDGAfw3K6cyB18VnOnY4/djR1yw2jvezKgBSDk62FzynyLC+/GPyJk137dXeEabI9O13+5t4Ny0jyZiYQQvNiv8/Dt+Fxu1u3c7fhL+L61x70Z0AIQ0jVRTCfeReyKQhyrQnIZzA3huzGw3UkGXyvPQAjBy4MFDdOaPg+O2dnqA9vD9Kp9PZQBLQABr4ipZOJ9Bnmf8x4Z0FVY5t9mF3Zu1hGn8rr6ldYmMmiyEILXdmUoczDhyw4bhWMrc7fJDLNcfWsB8LnypZT1YQY2ErDSp4tQzZjxDSMGOzPtlII6Lq4ZWkNCCCQUGfGLjRkXxwzYIzNO0a8PbfdwBrQAdHlVlJLWBhDEO77VpamU4QR8hWDYIxL+Q06l93u0gaY4nvwOKeB9OGXGZbEY2yPT9d/7MNcmezGgBaCDS4KBWCllieo74sZXgjMGfcFsGPa6CAp4bhrGwUbMHCem93VAVyRDGPhhzPCE4FeRBBzQIEpczKpyu20Nhhy2RPWdjymDkflzzZhlj03ff2fUmG4+DCuthDVOi/cYiBqOF4/AV7suF3KzjZ/2BECfB9UCsMgCljI4ADstsbH3IXXWl89Z6dbt5Cz+2mtM1wLxw1PWuAGMi6ejXuOZFwK63mUUctXaVSrg6RcMWgD2WKnqMA6+3/Bq6r9XoQU8GyscO1vGfQph2g2lnLI+yoD4crCfIvh+wyA7V6ldrggepWFoARC5+GtWHh5rOhMgUmezi/DxIXLstdOYU/oKaoErJxPvZ1HPQJXPoYQ/gGFnK86l/cBfrzAuawG4ZfWKZDzuThD4zb1agL3iugTkb644hdOApiKYuoJRTifeyewJweFdGcobXG5VKfqavBD963lZCsDm1NCRDFdk5r1BhaXbtak25zLs3ABlx5XT5puYvWPGaRU4BjAtipNkZ+pfVASPEjCWlQC0TrqJzb3XKME+cB+I7OxM7WxF8IQOo5wyX+flGzDUyIYE7iDmQqZa/1zok+1Dh8tCAKaS1tGx+Vz80xRZo78ClM9Waucqgkc6jFLKEtyLJ4JjpAfrIAAD9xhMdqZa+3QHwwd2yEALwJa0eXxTZOYx/lGRFbyTvJTc5fvfp5S0XgLyhOAkFdaEgQfEHkGu4vy7CniixjCQAlAeNh/rGiTO6b8gakIXi0dA1QXbujjmg+zMF0MVQsBPUmGNADR5vqR5XhQqUQSTdBgDJQClVPxJgCGO6z5HOnOdBbiNwPlMpX5hZ8OX36hSeugUcHMcoGeoMnsGztzfdfLJWexUBZMsHAMhAK2LSBzgOUUWUd34JaDkEuzcjPONbuyW89gt6fgTmq4xAcLzVOGBiT9d57p9bAX3qIIpbBx9LQDFZOI55GXmKfMYKXLwxeGTb4e9UMvF35a0eUJT9EJUZ98GRPS5BsV7kn8he937UgCm0okXGMziUf+xsgnqxD8DvyVGXvfG64StzsZsSVljTXjl01/RmUUEoxhfcuNGfnTb3EwE0SIJ0VcCUE5a/+iSV4Tj+EjYaROEGL+EQXZmpnaFCngGEcOm4cQ6w2CRiv16heb3dY5TPndbbbNCmHxB6QsBKKUsUatO/Mc/2tcsQzei613AHq3UfhS6a+1wUQYUPLYtcF4KF3Z21vlDvy6b0gJQTFuvJvZu/IwaBPM1MZfz63Xuec+W4+aj9l9lObUJInpXz0A8PPDlrfMdv1EIU0dQlBSAcso8nUH/BmBtR7OQPYhwJcO1czONn8sOpf13xsCWdTiwUTM3EtEHOrOQP8rrveB99m3cID9aOBGUEoBiynwzzdfUHw5neoG99K2yB555nzjYsg6JRt3aSApVbWLQdQYon6nM/Vh1GpUQgHLSfIcotMmgw1QgTBSeNOKcz2yr36wCHo2hMwaKKUtsEItjxmZnFnJHMeFXnhAovEncUwEopRLvAbzPeQfLXYrOvBPhEoNhr684U51Z6FEqMjCVsj4iypUB2F8RfL/n+YNhlymCZzeMngjA5nTig6648RkHKELIRa5L9uhsbYsieDSMEBho/YMRZwkOCcFdYBcEFFt1Hy4O7CwkB5EKQDFpfWz+5B4SIeEP5obxJY4Zdm56bjqYI22tMgOlpPk2EAkhWK0Izm3MnM9V61/pNR7pAsAAlebfzcSNb/R6wvPxdd85NdYhWhStjs1CCNT4ugRsF18NRir186Nl4sFo0gRg0xis2A5LPOZv6NXk9o5L4M8YTt1efyfuVgWTxhE9A63zJUIIstFHXzTiXwCye1EgJnQBuPMwrLw3YYn/9h9WhFww8afmqG4fP417VcGkcfSegWLaehm5EBmIx/UejYdgRyuZ7Kyo8IQmANvW4BEOmxtZofZRBJx5QMOxV2/3qr7on2ZgUQY2pxMvcBVKLgNQB8HOzji27CULLACto5niRNY7ZYPt2D/D3rHKsU+6CfWObfTAZc/A5tTQs7yvU+CnKEMGYTJmOvb6rajJwORbAMrDK45wDXcjgd8iA5gPnw0Q8lGopg9s2qSPGCgn409xSZSUo2epApuZPxlP1PPrt+LvYWLqWgC83vHsis29M8IEEsDXTgbyuYpzZgAf2lQz8DAGVKstKQAy82fj9Xo+rI3sjgVgajix3jC8U3uvVeFaIeBvYMpnqrVPqYBHYxhcBspHmMdxzDtH8DJVZkmgLxhNI7/+9p2zQTC1FYAtKWvUhTinr0plFvrz/H/82meCTFzbaga6ZeAPa6ys1fS+Gry6W1tZ4wn4asMle2y2ttVPjCUFoLzWPM5t0L8R4aV+HEuwuQPM+Wy1/nkJvrVLzUDHDCj4Giywf6sJ5McqzqaOJ+K1Vd/rV06aJ4NI/Md/YTeOJI6dAXE+O1P/ksQY2rVmoGsGptL7Pdrgpvhq8LaujeUZfM8lzo/O1H/bSYjdAlBMx59I7NXUf24nhrLHELAV8zX1L5IdS/vXDARhYNMwDo4Z5kaA3hPET6i2hCtjcPPrZxq/2JdfKg7Hn0aGKMKhTGMGkTGVH606l4RKiHamGZDMwM2HYeWKhDXhAh+RHKoL93xttlJfsukKlZJWHuSVX+7tj3CzAeRHFMyZ7i0xOnq/MXAtEF+dskQzWnFftd1olz2/bMVZEgOVU9bHGfiobBD78H8jg8Su/uU9xKBDawakMCBS4I35ztRDUgJ04HSfAlBKWSLx4EMd+Al1CAO/IJfy2dnalaE61s40AwoyUEwnPmAwCyE4KGp4+xSAYtr8FEWZwEP0U4Dy2Zm5a6ImQsfTDPSagWI68S6D3QkGrYoKS5tXAPM8Bv2LbDAMvtpgzmeqjetlx9L+NQOqMyAqYBsg8USQlI11368A6cTnwPx2aSAY/+vGOD86Xf+ltBjasWagTxkop8zXAd65m3WyprDvV4BU4gICv1lC8O/FiPPrOzyQICG+dqkZ6BsGSinrNIbX93IsbNBtngCsL4Wc2Xcpu8jnZh3RKlv/NAOagS4YKCWtl/B8A9wTujDb59B2XwG+CuB1QYMx4+J6DPljp51SUF/aXjOw3BkoDSf+gQ0WQvCEoFzs+xUgaX2DCK/yG4SACwlGfqQyd5tfH9pOM6AZWJyBUnroFLAb6ItZuyeAbwEQ7bd9/dh1T8nNNn7iy1gbaQY0A20ZKKUsbjtoHwPaPQFcFiTlVwtAkKXRtpqB9gxIFYBSyvo+gBe1h7H4CC0AfpnTdpqBzhiQKwBJ6woQntcZlIeP0gLglzltpxnojAGpAlBOmVcx6NmdQdEC4JcnbacZ8MuAVAEopcxrADrFLzj9BOCXOW2nGeiMAakCUE4lruMAjRC0AHS2iHqUZsAvA1IFoJSyfo4Ahw20APhdVm2nGeiMAdkC8BsAJ3UGRe8B+OVJ22kG/DIgWwB+B+AxfsHpJwC/zGk7zUBnDMgWAJG0c3RnUPQTgF+etJ1mwC8DsgWgCCDrFxwzn5Gr1r/i117baQY0A0szID0XoJyytoRQjGA7mG3dtUdfypqBcBgopxPPc13eSITHB/XYLhloG4A1QYO07P8KkJ2t1M4JyZ92oxlYVgwU09apxF45cd/7cnsT1k4AqgCGw2SZgQcIyGcrzifC9Kt9aQYGlYFi2np168b3/Tq+FDftBOAOAIdLItYVQjBScWwCXEkxtFvNQN8yUEqbbwSLzlxIy5pEGwFI3A3wo2QFX/C7qzHCmfu7Tj45i52yY2n/mgHVGZhKJ94Zmy8PfphsrO2eAOoA4rJBPOifz1mBej5dwT3RxdSRNANqMFBOJz6AiBuEtGsN1mAgFjk9RP/lImaPzjwgXkH0TzMw0AyU0tY45jf3rKgn2k4AmgwYUYPaHY/wZcCwszNz4muE/mkGBoaBLeuQaNatCTA29HJS7V4BxOZczzuYiqrCRgz5jK4q3MtrRccOgYFbj8RBjaY5wUwfCMFdYBftngDuYeARgaOE5IAYl1GM7ZHp+u9DcqndaAYiYeC2tSsPc9zGRjC/I5KAHQZpIwDB6gF0iMHPsCtcg23dUswPddomSgaKa4bWUNOdAOGNUcbtNFa7z4DXA/zkTp1FP46vibmcXz/b+Gn0sXVEzcDSDJTXWFm3CXFc13dfjSj4bScANwD8pCiABIzxc2bK56q1/wvoR5trBgIxsCltHm+4NBGknH4gAF0aD4oALEz7JjDsbNX5Xpc86OGagUAMFNPxJxiuMcEBqmgHAuDTuN1XgJ8BeKJP3z0zI2BTk2GPVp1v9gyEDrwsGBApuew2NxLR0/txwgMpAHssxK0EzmcqddHkVP80A6ExUE4nnu+6LB71A6fkhgbKh6N2AhCoKKgPPLJMbmdwPlepXyArgPa7PBjYnLZOdUNOye0lc+16A/4iiMIR8BUG3tDLCT40Nv0ZgKhJcJ46mDSSfmCglLZeA8Z4kApZoc+TMBn0JOG+zwEkrV9wgEecpsuPH5ut/6qU9o48irPOZugk+HO4Y14InLP8mWur5cJAKW3+M5jEjR9WYZyg1NVBsLMzji0cSa0JWExavyTC4/wiJpcfl5mt/3rBvpROfAjMIr95f78+w7RjoEGEfGbGKRAQqM1ymLi0r94zUE4n3umyO0ERpOR2ONtF/2lJFYBy2volcwABYH5sploXvQUe8iulEu8GPCE4pMPJSx9GhI/v13QKuiaBdKqVDlBMJz5IzOI//kGKAP1Lq5TeuYvhkSoApZT1KwCP9UsELSEAC/6KKfOtBBKvBkf4jRG2HRN/qs71wrG6JkHY1Crtr5WSK278hCJAtxvg/Eilfv6+8EgVgHLK+hUHEAAwn5yt1m9sR2g5ZZ7O8EofHdlubFR/J+b/tGJWYe30/XdGFVPHiZYBkZLbqFsbifGxaCPvM9o2Zs53Wk5fqgCUUpZ4fz/ZLzlx8EnrKvWbOrUvJ61XMkEIQa5TG+njmL7IMSrkpuempcfSASJh4Hdr8IghNieI6f2RBOwgCAFFl2Hnqs7FHQzfPUS2AATrDQg+KdeFACzMaiptvdRgTwhCK3/cDalLjP06GSjomgQhMNkjF5vWrDw8xo0JxVJyf88EOzfjXOaHFqUFwCU+cXSm/ls/ExM2U+nE82Mui/PVypy2YuB/jBjbmW31m/3OS9tFy4CXksuu+BStTErurpyBXxmgfGamdkUQNmQLgHh/P9EvwBjxCetn6qLBaKBfKT30DO+rAfPTAjkK0ZiAH5DLhZHZutgo1T8FGdictnJNF+K4rjIpuQy6zrvxK3M/DoMypQWgSXzCWAgCsEBUKRV/EsPYSMBzwiAvDB8Evtp1uZDTNQnCoDMUH1vS5vENxVJyGfwjsaufqTRuCGWSLSeyBUBs4J3gF7Bh8PEyyneVkuZJIO/z4Yv9Ygvfjm6IMez11dpV4fvWHjthoJiOP5FcYxxqpeReTsz2YudhOplTuzFSBaCYsn5LwPHtQCz1d4rxY2S+KxeHrWPI8I4Yv9wvRgl2N4LJzlZr35fgW7tchAHvFZGb4wCdohBBl8KFnZ11/iATk1QBKKWs+wId2zX4jdnp+pdlEiB8F49IjFCMhRC8VnasLvzfsqupSiFbcb7VhY0e2gUDIiWX50/tPaELM9lDv85xyuduq22WHUj4V1oAXPDpoxHm4k+tHUrHmjzO4DdFQX6HMbYQ2M5U6hd1OF4Pa8NAMW29zGBs4ABPp6GTzPiSGzfyo9vmZkL3vQ+HsgVAJCCs9Dshw8VrRmadb/i192snSjDXGs4EEb3Trw8JdtWWEHxBgu9l4VLFlFwi+lyD4vZYj06MKi0ALuNVo1Xnkl5dndvW4BFzip34AvPdTIadq9Q+0yte+i2ugim5YOJP17lu9zpnRLYA3A9gvwAXzMuzFefSAPahmFaHseKBmDXOap35/juICtmZ2tmhTHIAnRTTiXcRs2idJatFfdesqdbJWmkBIBenZmad73TNsiQD0edwc8oaZ3jHjKNverr4vBxR4CEz40zqmgTzBImUXINZvOOr0pVK9MgUG7p5AkS7PGV+sgXgAQArfM+W6SWqfg4rpayPCCGgYE84vqlZ1JAwmSCnsHYac+E67g9vIiWX5jf3hlRAzIC4/gu5ivPvKuBZDINsAdiJAIthEL1wZKb2Q1XJE7hKqcR7Ae8T4sGq4GTmTw7F6kII7lUFkywc29ZgqMZee+yedsndc34M3GMw2Zlq7dOy5h2WX6UFoGnQ88ama1eGNVmZfkpJ8+2t04WPlhmnG9/E/NlGzJrs1Q5zN1i7HSs2aB02x1XpktvCfwcxFzLV+ue6nU+vxssWAPEo6rtCigHj2SOVuat7RY6fuJuT5hkuecVJVCkCKTq0/7cVo8KREX9j9sNfO5up9H6PNtz6OIhU6pI7DeJCdqb+xXb4Vfu70gIAMp6RnZm7VjXSOsFTTFuvpvlKxtlOxkc05muIUSG7rVaOKF5oYUrpobVwXXFOX5mUXACCR7G597XQJhqxI6UFwI0ZTxvdNnddxJyEGk6cOiMXor3zcaE6Dubs29Tkyczt6tckECm5rgtx47862JRDtCb8weshqcAn6qCzki0ANQCWf5Duk7OVhugv2Pe/YirxQprfLPRdJFUCCZeLmgR7ll6XEMOXy6m0eULMpQ1MONWXAzlGv2GQOIR1uRz30XtVWgAWGoNET4u8iFOpxLNjgMg3eKq8KN15FrnmMebCSLXR86ctkZJrsCE+5T2/u1nIG02g611GITeAqdqyBcAJ1M2nw6rA8pZenuepZPypMaJxBj1bXpTuPBPoOpcx2YsLXaTkEjc37Kp484zuUMsbvRyKtSgtAM0GnzC2PXhJMHmXSHDPm4bNx8UNIQR4YXBvoXn4NZgmoziE5XXJZR4nhVJyGfhhzGB7ZHrwy7VJFYBi0qoTIe73sjRdHHvUrCPy4gf+V15rHuc2aYKAlykz2fnNLrHL/e2wMYkuuU2GuPF9F4wJGxMzLovFvBv/92H7VtWfVAEoJS3RiNC3ADSBsbGKM6UqeTJwlddYWRa73sBrZPj345MZmw3iQhg1CVopueLUnjK9G5hxccyAPTLjFP3w0882cgUgZdV3fSf1LQBmkzJH3R5NZRTVFlHR794zDJ7MVepd1yRopeSKG3+tMlwTvuywUTi2MnebMpgiBiJbABpBsuZiTOvWV2u3RsyJUuFKyf1Ww2iOg/ntqgBj8J8MMgqZmdpn22ESXXJ5PiVXmSPSAH0eHLOz1Qe2t8M/6H+XKgDllNXgYGmzv3FBG0YrtR8N+kK0m1/xCBxCMVMUrnxvu7ER/v1vTFTIzdT+Y++Y5XTiA616e6qk5ALgc7lZt3O34y8RcqRkqNbn6AkGPyUIwGzFoaXsKQQBWPB9I4Pyg3QAwy/pmw7F/rEVltgj+IhfHxLs5kCYzM44hc1pa4PL3h6GEim5rbme1dzp2GN3Q5SoW9a/LanEi5qiSQ5wUhhE7FMASimrCcAII1DLxx93vVKII5jLvlLujSfCXHm3NW54h4pC5TjE5eqdK1F4gxmTO1Y59kk3QexFLetfKWWdBni5KUeHSUTUAuBhJ2Ar5ivlfjXMyfSrr3LK+ijPL67/4iv9Ovm9cBOwU3y6zFSdjw/IlAJNo5wyX8/wslOPCuRoCeN2rwCiFFKYTwB7w7hdtEsaqdQvkDG5fvNZTibez+TlGyj03h0Zi/cSkdiY/GRkERUOVEyZbyV43a+OkAmz3ROAqH+25CZBiMD+ApCdrdTODdFn37oSO+8uuxMEOqxvJ9EhcPFFAmSIjci2XyQ6dNnXw0qpxHtaFaoOiWIiqgjAwlxFFWKxR/CJKCaveoxy2nwTM4kNubTqWLvFx4yKKMLh50xCt7H6YbyoUdl6x/fdh8PPPFUTgIU5uATkRyqOrVoVVj8kB7Upp8zXMZGomzcS1FfP7QmbXebJKDtG9XzOSwAQr9ellCUK04pHfZmv2ktS0E4AWAHyPlGrOfZxf4J4OljWv9ZOsHgiOKYPidC9EluLdvNhWJlIWOKm7/mn4H4QgBZt+hDIwk1fSlovAXlVdE/uAyG40UtIqjrf6wOsUiGKw2CImRsJ9G6pgbpw3k4A7lCpK8v8vOh8cg07M7vz9i7mOZBDi8nEc4nEoR1+snoTpJ/BRSE72x9VoWXyd/MRK4aHYq44tfcWmXH8+N63ACStGRBSfhzLtiHgQlG7fbnnGgiei2uGnk5uUxwzfqZs3tv752tAsUK/FoNtP7/OR2waTqyLGzzBwOs7t4p2ZLsngAqAZLSQuo72LZdhj1YdccpwWf+K6fgTiA2xRxB5OS4CrnDJnczNNH6+rBcBwNakdXSDvPZzL1edi3YHgSqsvgAscPx9MNvZav1G1UmXjU8U5CSXxonwUtmxiPAdA1xYP1P/rexYqvsvJ82TmbzDOy9SHesCvnZPAFUAw/0ymRbOqwiunak0bugz3KHD3ZSyxgyC6Lf3yrCdE+ESg1FYX3E2he273/yVk/GniGYyBHpWv2Fv9wRQ5f4TgNYa0PUGKN9vnYlkXEDiXdQwvLp9pwf1z8CFrkuFsdna1qC++t2+mEw8h0h8w1dxE7Yzdts9AczKPovcGcxAowauFrxfNm5ZvSJpxt0NAL+1Wx8MuqDRMArHbN8pngqX9a+UTLwY8zkboaTk9pLMdgIgPrWtDgBQ5BL05ITTIpjFQRRxzDj0ApkB+OmJ6ZZ1+x/adGriq0EH36P5vJqZmDzu1h139QSsQkFlpeQGmGLg+0uqANRM67BE3TmDAXHccb8AEw3NlIGtIgMxjAKZoYHqkaMt63Bg0/GKk3xoEQhnxyynsH4r/t4jeMqELabM0w14pd/XqQCKgQfEP7NcxTlTakmwUsoSNdd814KLOc6q9XfibkFa1FlOHSzULIPtnE5FxpZ1SDRrlujfJ/INCrGEd+OLtnDL+hdVSm4XJD8sa1ZpAaCGc2hmO/685wQ3p8y3uPMFDqTmOXdOKgl8IhX5vM5t9MhBZqCUSrwXYPFkFElKbgdc3t76Z3X+3mNlC0Cgo8CLCcDCBESlE4DEKSlVHqvuFxmI2YpzVgcLoocMIAPllPWvDK8eYqQpufug8tbWjX/hUmOkCkAxZd4ZpCgFN51HtavgquDGiqiCZN9ScQqnAaImov4NMAOi6vXmlJeZJ97xYypMlYFNPH+69Zvt8EgVgHLKvJMDVKVpus4hY7P4a7tJiL+HXe20k5jtxjBwplNzCjoVuR1T/ff3Ow/DynsTlngV/bAq6Bm4iZjy3fR0lCoApZT5J4BW+SWoGwFYiBFWvXO/mBe343O4WS+0e5oJN6b2JoOB8mo8iuPmRGefQGUgWMwn3SD+4/vp6ixXAJLmXSA61C8NDpyDj63gHj/2m5Lxp8RJ7BGo036bQec7TaNw3O07xQEp/esjBrYcsWLYVSwll8FXM7M9Wm1c55dKuQKQTtwFZt8CkDCcR66dxr1+JyfbYxWSAAAT3klEQVTs/pg0T46R13VXmQQLfRw2yIpGazs1nFgfM1i83yuTksvADwzmfKZa/01QNuQKQCpxN8CP8gtyp+E88viAArAQu5ViKTZrRIMEVX7fdBkFnYqsynI8iKM4bB1DhldrT5mUXAYuhYt8btYRp1JD+SktAGbcecRRt+Fvocy05WTrcGJd3WDxRKCMogP4foO5cHQIih4mV8vRl6IpuRe5Ltmjs7UtYa+JZAGwxCEZ34chYpZzkKyjpOKdrhETtfOVKrN0VZPdwli1cX3YC6397ZuBqWT8qTESx3WV2jP6QqNh2DITqKQKQDFl/YWAg/1efDIFYAFTa1dXJLa8xy/OsO0IdF0TKOiuyGEz+3B/rZRcURcxUJfcMJEy+DNGo57f+xRsmDEWfEkVgFLKEm2YfQsAVjgHZsu4T8bE9/apYtddAn7tggq6K3L4V4CilZEj72IsVQCKKeuvBDzS7/I1dzoHRN3S+VogfnjKEsUvetZsYRG+bhFPBGO6K7LfS2m3XTlpvcIVVY5C7pIbAJjLQOHOimOfAjQC+PFlKlUASilLnOLrKwHYk0XRbkmlVGRx4NEFF3RXnO6v9XLKPN0FiRtfldwRkZJbyFWcf+9+NuFZyBYAcYjHd6faWs3ZX4VjtKqlIhNQFUKgU5Hb3wilpPk2EIkmKKrUphQpuYVspXZOe/TyR8gWAHGI5yC/0ziw4axcvd0rXqDET738bp2KvNSFMZ+SK7of+T+HEvJFdzuYC9lq/fMh+w3kTmkB2NFwVp6kkAAsMK1aKjKAHa731UB3RW6l5Ir/+PsHujPCM76VmQu5av0r4bkMz5NsARCHeA70C3el6+yXnMVOv/ay7RRMRW60NpQme7GhJJvvpfzvsXErbvx4r3DsGbeVkitOeV6iAp6ln5SsQA1829UEDCQACcNZsXYacyoTKLCpWOVVpCK7O53JqL+iRLlWKn66nU/Jhd0vzUxlPwGIgpAH+L0o7jCcFaf0gQAszE8cKhGNNFihQyUAn0ON+mQUh0r8rnO3dioe3gK8lNxCrlr7v27n08vxUgWgmLLuowDvYjHLGerH4pKKHis9P940Cuv7OBVZ9CWIx91xlY5vE/hq1+VCbrbx017eyH5jSxWAUsoSp/h8b8Y0D3ASY5vg+J1cr+02DZuPNQzv27NSqcjs0qSMxBJZfN86nFjvzHcmUiaBi4AfwGU7M1v/tax5R+FXtgDsCFIgsd8FYPerwXxqqSgWqVQqMruYDDO1NOwLtjRsHQtDfMpTijeRkmtnZ50/hD3fXvhTWgB2HOpYJ92Eei+IkRFTxf9kAL5HzJNhFJcIi7PysPlYNrzDOy8Oy2dQPwRc5DapkLu9tjmoL5XsZQvA/QjQ0SdzpGPST6I/Hy17gbauXpGsK/Yuy8BVBruFTA9TkTcn4091yRA3/nNkr0Gn/gn0hXqdCkffMVfp1KafxskWAHGKb4VfQu6oOOYgf8/ecjgObVrmBpVSkRl0HRiTfgpM+l1nFVNySaTkOnV7oTOV37mpbidVAMop6wEOIACZihPflZU38LX1S4/CAdjPEv/5PqLQBfNrME12U2K6W+yt8xNib+Tkbm0ljj8bKxw7qjR0ifPoyLVUAdiVTSdO8Q11hGSRQZmKEyNAdDBdFr8bT4S58m5rg0qpyAzcQkAhG2Iq8lTSeoVB3ubeMYosrCueenascuxB2nPqhFupAlBOWTt3nUjzLQCXVJzY/1tGArDngokz7S4gaheq0hV5iwEuZCr1r3ZyYS02RnTJJXibe+v9+gjTTnTJNYBCpscpuWHOqVtfUgWglLLEMd5Et6AWxmcqjkFAoLPKfmOrYqdgo8kqgydzlfrDGk0uxZnIojRAGxhIKsLrX4hpMlOtfVoRPD2DIVsARItoy+/s9pVo4Ndnv9q18trF+7IaXZGJ7haPzdlK7dylOJ2voyDOPyiVkjuZrdb/q1+vg7BxKy0AYNiZqpOnHpRKCpvosPyJyjaAqF6rTGWbHa09gk8szFFUUpq/8f2fAg2Lr5afW8Esbvwvh+y3b93tyhqNl5PWRpBX+s73r102oDjGa/r2/qDh2QfvdPKr7oY4Wah/AERtOybvJjtaBUJ2tcUW9ewmySvCoU5KrsEoZBRPyY1y/VpfnMRN/6Ew4kYlAB7W5fJttpuFaVW3FUJwUjd2gzxWpOS2bvzvDvI8u5mbOHPiWqbolfkv3di1G9tOAMQxXgkFGui/4w0jv277zmo7gMvl78Vk4rni05paqchRs083wMVkdrZ2ZdSRVY0nTp024u5GgN8kA2M7ARCPhTEZgVs+v2a6lD9KQsskiZilui4Ox59mGGLHXZ0ON1InPP9kKFJyJ3OzjZ/IjtUv/otHJEYoxuJR/7UyMe9TAMopS5SokikAC3MbqAytMBZs07D5uNh8Qo0yqchhzGtPHyIllwwujEzXfxW27371JzIo2cBGAl4WxRzaPQGIY7xGFEBEDAZ+aLic7/cc7TD5aqXUij0CZbrchjC/SynGhcy2+s0h+BoIF0LwDYPEwbEXRDmhdk8ATY5QAB6cOP9Y9E8fqTaui5IMlWO1HgmFELxOZZz7wiZScjlGk9lttXK/ziFs3K1XPrG598ywfXfir90TgDjHT504kjOGfsYMu9/qtMnhYt7rH48cSsUaoroOv1lmnDB9i5TcZowmR7fNzYTpt599iU1fIt4I4Im9nEc7AVDlGO9N4lBRv1RqjWJBtx61/6pGvSZSkd8dRTw/McRn35iZKKy7dcddfuwH0aactP6R5w/vnKDC/PYpAMWUJTYjBFgJnwK7nz4DUwYjn6k63+zeejAttqzDgU3HS0X+sEIzPDtmOYX1WyGqSuvf/MGvV4pTewyMKkKI2OC3cxUnvxSe3Y/+pZQlLi7xuLJSEfC3MbOtareWXnC0aQyWcZ+Xiiz2CSLbuN1jrl5KbvNAp9DPhWDDXrtS0jwDROKf6Nqwffv0J6p85bMV56x29g9792812RRCcHA744j+vh3Mtmr92iKa+5Jhiinro+IsfxSpyDold/FlKCXNt7du/Ef3+npoxf8rQPl9JX/tjXPJzb9WZptQtdUqTI6Be2h+ckp0bFWBE4FhKpl4n0EsXg8OkYBJp+QuQmo5mXgfk3eA55ESOPfj8g4w5/38k2y7+785ab7BJRJPBKo83ogCJuK9pqc92/2skkyb1n8jIQRhpCKLLrk6JXevBSsmrY/Nd5XyX0Mz5GtgW+vp2HcGZVsBWAC8OWm9yiVvjyAb8iT8umMhBPcf6hSWW4mofRHWEmyxR3CUD2J1Su5epIkScPvfZU1gPquz4/vFB/fdmJQMA/mRaefibowWG9v1hIpp61RyIXKUjwsaPET7s7DCKSyXIpGd8CZ2pF3y9gjG2o0XXXJ1Su5DWSplcAA/YG0kwgfb8RfZ3xk3ezf+jHNZWDG7FoCFwFPpxAti4AlmPC4sMEH9MPgz8WVQJrobnlrfpMWrwcNSkXVK7sOZvPmo/VcNObUJJnpXNzxLHvtrgyg/MlP7YdhxfAvAApByauiZLngjgZ8aNji//licShvgRhF+eCkNJ/5hvoUXP1l0ydUpuQ9lUZy+NBs8wZJScv2sGYGua4Ls0crc1X7sO7EJLAAPCkH8yS5oI6mV4noRD2CrqE4WdqkxxeH403VK7oPs3HpkYqTe8I7rviYIr2HaEvhHDWZ7LIIOUKEJwG4hSJon8/yhCJVSXHUqcphX6AD4Kq81j+Omd51GkpLbCWVeN2PmfJQ9IEMXgIWJFue77Qpl/adOJh/FmEFpFx0FV4MaY/Ow+Tg2SBzXjTQld198MvA/5CLfi27G0gRgtxDMVz1R7RFLVKcp5GYbPx3UC13P66EMiFcfwxCVmnuTkrvEenwdMbJ7mTotXQAWJj61digdE5ssxP+szsWpU5HVWQs5SMTmJxssinD0NCX3IbNjfIljhp2bnpuWM+vOvUYmAAuQNq1ZeXiMGxNgfkfnMKWP1KnI0imONoD4/OmS17ZNiZRcb/ZE/5WgeH7t9P13RsvG0tEiF4AFKH9I4ZEmmRPE9D6FyNjUanSiU5FVWZQucRST1qvEqT1SJyVXFMI7x0E9f2wF93Q5HenDeyYACzO7cTX2Wxm3hFL/q/TZdh5ApyJ3zpUSI1spueK47pFKAJoH8YkdDSd/0nY8oBCmh0DpuQAsoPkWEDsuZYlEC7Fh2Itc98XWSKciq3rltnBNJc13GORVVlYia3VXTQ2XAPvmimOfBoiCu0r/lBGAPVkSbbdbQrBCEfZEnrWtU5EVWQ2v+k7i/TyfBq1K3Yqd4sbvtzbmSgrAwmXWynVXKe/6gdYin6nOrbC8kJST1sda/RZV+edwLzOJoraf6seVUFoAFght5bqLV4PDFSFZpyJHuBB8Isyyeim5d7pEhdGZ2n9GSEXoofpCAHYLQdp8I7PIN0A6dCb8OzzrXsuZfLwujumfwSUsRTHURs2aUColF5gBsZ2dqX8x9An3wGFfCcCDQmC9BuxVMs70gLMlQvJ5NTMxeZwujx14SUQ59LpTmyCVUnIJm72y9RXna4EnqJCDvhSA3UKQsv5JlGEG41hVOCXQBfU4TR5921xFFUz9gkOcFjWaPC6rS65PHm7Z1TxX3Pjf9mmvtFlfC8ACs5tTiReKmgQATlaI7Ys4ToXcbbXNCmFSEkppbSID78aX2yW3y8nfCCY7W619v0u7vho+EAKwhxA82/XOEYiiF8r8vt1o8uTRt+smmXuvSCslV9z4ymSMimIpMYa9vlq7SpkrSCKQgRKA3UKQjD9V1CRg0LMkctet68ubLk+Ozeo22VNrzMeTS+K4rjIpuQD/mF22l1uG6EAKwG4hGDYf1+xBO+Z9KQODr8YyTUUurhl6OrnNcaiVknuFa7A9Ol3/ZbeKPgjjB1oAdgvBGvMxzSaJz0mnqrNodAMzCsuhK/KmdOJ5MfbqET5JFf6Z8R1x44/N1H+nCqZe4FgWArBbCNJWznUxDsKre0H2EjFvdBmTo1XnuwphCgXK1LD1UsMrRIoTQ3EYghMmXBKDV1q7GIK7vnexrATgwc3CoSNdcsfBOEOVFRS1+cUTwWjVuUQVTH5xiJRcg7CBO+hJ4DdGt3YEfIVg2COVudu6tR3k8ctSABYW9PfDK44YMlzx3fltCi3yrcxc6MeuyCIll4jEje+nK5GkJaDzyTXszOzO2yUF6Gu3y1oAFlaueAQOoZgpNqfeq9Bqiv58BT8NH6OeQytXQ3zOUyUlVxThOI8adTuzHX+Omo9+iqcFYI/V2nQo9o+tsMSF/BFVFpGBvzJTYbRa+7QqmBZwtLrkCr5USckV0M4+eKeTX3U3dqjGl4p4tAAssiqiIeTKu61xAxDlo5XgiOFVlSmo0BVZdMkl8jb39lPhoiaAmTG5Y5WT141iu1sRJS7u7iBHO7p1sYvEo6FoIy8ZzWWg4B7gTI5tghMVpk1jsGJ/t8bFjc/qVGyaMwiFkRlnMioeBi2OFoAOV7SYTHyAiIUQHNShifRhLnC2aTmF9RJTkUVKbtPxXos+JH1CnQf4GxMVcjO1/+jcRI9cjAEtAF1eF8V04l3E7gRAq7o0lTZcdEU2zURhXYipyLesXXmY1XQ2MOhfpAHv2jHfxTAKuUrtM12baoNFGdAC4PPCKKfNNzFIpCKnfLoI3Ux0ReYYTY5um5vx69xr4NLkDQx+s18fEuyqDC7kKvULJPhe1i61AARc/nLKfJ0nBMD6gK7CNL8IMZrspuWUoim5Wxg8mavULwyTHO3rQQa0AIR0NZRS1mkMrxPN0SG5DOyGgUuNGBcy25ZORVYzJRd/JEYhU3V0g5bAV8G+HWgBCJngUtJ6iehMA+CkkF37dsfAD2IGF0amH0xFFim5Mdc7tfdC347DN7ypdeMPXF5E+FSF41ELQDg8PsyLaEoJQwiBQhlw86nIk4YhbnylaiX8nIgKmZna/0paDu12CQa0AEi+NErpoVPAXg78MySH6kP3fC0oVsjOzF3Th+AHArIWgIiWsZiOP5FcQ6QiPy+ikOqGYVwZN1x73Uzj5+qCXB7ItABEvM5b0uYJLmicGS+NOHTvwxG+62U6Vuo39R6MRiAY0ALQo+tgS8oacwlCCF7ZIwhRhv2mO1/r4I9RBtWx2jOgBaA9R1JHbB1OrGsaLLoiny41UA+cM/BVdqkwOlvb0oPwOmQHDGgB6ICkKIZsXb0i2Yy74wx+SxTxZMYQJxLNhmGv276zKjOO9h2cAS0AwTkM1YNoi9Ws18bVOoPf2RSZ+bOmlbDDzEnoLLIe5ZcBLQB+mZNsd+uROKhet8RXgw9KDhXcPeM/TNMpHHUb/hbcmfYQJQNaAKJk20esa9dg6LCmNS6KbPowl2tCmEyQU1g7jTm5gbR3WQxoAZDFbPh+qZS2NrS6Ilvhu+/YowNCITvjFEThvY6t9EAlGdACoOSy7BtUKZ34ELH35eDACOHfJ0qSZSvOWRHG1KEkM6AFQDLBMt2XUol3e4lHzIfKikNEd4t6e9lK7VxZMbTf3jGgBaB33IcWuZgy30ogkYE4HJpTYNYAF0Yq9fND9KldKcaAFgDFFiQInGLSfAORJwRBGnP0bWOSINwtV1stAAO48qI1l3g1IGC00+kxMAWvWalzcac2elz/M6AFoP/XcMkZFNPWqWBPCI5fahADvxO7+rkZ57IBpkJPbQkGtAAsg0ujnE48n5nFq8ET9pjuL1yiydGZ2g+XAQV6iloA9DVQTg09k7k5ThQrZCpzP9aMaAb0E4C+BjQDy5iB/w+5Oqse+4TrfwAAAABJRU5ErkJggg==;" vertex="1" parent="1">
          <mxGeometry x="540" y="255" width="34.67" height="34.67" as="geometry" />
        </mxCell>
      </root>
    </mxGraphModel>
  </diagram>
</mxfile>
